# xmcd
#
# Track frame offsets: 
#        150
#        15840
#        32297
#        48622
#        60087
#        74862
#        90247
#        108092
#        129025
#        142127
#
# Disc length: 2119 seconds
#
# Revision: 0
# Processed by: cddbd v1.4PL0 Copyright (c) Steve Scherf et al.
# Submitted via: ExactAudioCopy v0.90b4
#
DISCID=7308450a
DTITLE=Evangeline - Felt Like Home
DYEAR=1900
DGENRE=Classic Country
TTITLE0=Island
TTITLE1=Polaroid
TTITLE2=Train Never Came
TTITLE3=Somebody Else
TTITLE4=Making Believe
TTITLE5=Scenery
TTITLE6=Crooked Sidewalk
TTITLE7=Freeway Lullaby
TTITLE8=Dreaming Big
TTITLE9=All Roads
EXTD=
EXTT0=
EXTT1=
EXTT2=
EXTT3=
EXTT4=
EXTT5=
EXTT6=
EXTT7=
EXTT8=
EXTT9=
PLAYORDER=
